<svg width="208" height="208" viewBox="0 0 208 208" fill="none" xmlns="http://www.w3.org/2000/svg">
<circle cx="104" cy="104" r="104" fill="#FFC033"/>
<path d="M109.208 163.92C97.7948 163.92 87.4481 161.467 78.1681 156.56C68.9948 151.547 61.7415 144.667 56.4081 135.92C51.1815 127.067 48.5681 117.093 48.5681 106C48.5681 94.9067 51.1815 84.9867 56.4081 76.24C61.7415 67.3867 68.9948 60.5067 78.1681 55.6C87.4481 50.5867 97.8481 48.08 109.368 48.08C119.075 48.08 127.821 49.7867 135.608 53.2C143.501 56.6133 150.115 61.52 155.448 67.92L138.808 83.28C131.235 74.5333 121.848 70.16 110.648 70.16C103.715 70.16 97.5281 71.7067 92.0881 74.8C86.6481 77.7867 82.3815 82 79.2881 87.44C76.3015 92.88 74.8081 99.0667 74.8081 106C74.8081 112.933 76.3015 119.12 79.2881 124.56C82.3815 130 86.6481 134.267 92.0881 137.36C97.5281 140.347 103.715 141.84 110.648 141.84C121.848 141.84 131.235 137.413 138.808 128.56L155.448 143.92C150.115 150.427 143.501 155.387 135.608 158.8C127.715 162.213 118.915 163.92 109.208 163.92Z" fill="black"/>
<path d="M28 129.5C40.4 99.9 60 67.5 69 62L55.5 121.5L28 129.5Z" fill="black" stroke="black" stroke-width="0.5" stroke-linecap="round" stroke-linejoin="round"/>
</svg>
